<?xml version="1.0" encoding="UTF-8"?>
<svg width="64" height="64" viewBox="0 0 64 64" version="1.1" xmlns="http://www.w3.org/2000/svg" xmlns:xlink="http://www.w3.org/1999/xlink">
    <title>Woman holding Shield | Silent Shield</title>
    
    <rect x="0" y="0" width="64" height="64" rx="14" fill="#E11D48"/>
    
    <g transform="translate(14, 12)">
        
        <path d="M18,0 L36,4 L36,20 C36,32 24,38 18,40 C12,38 0,32 0,20 L0,4 L18,0 Z" 
              fill="none" 
              stroke="#FFFFFF" 
              stroke-width="3" 
              stroke-linecap="round" 
              stroke-linejoin="round"/>
        
        <path d="M18.5,8 C21,8 23.1,10.2 23.1,13 C23.1,15.8 21,18 18.5,18 C16,18 13.9,15.8 13.9,13 M23,31 C23,28 20,26 18,26 L18,26 C16,26 13,28 13,31" 
              fill="none" 
              stroke="#FFFFFF" 
              stroke-width="3" 
              stroke-linecap="round"/>
        
        <path d="M13,31 C9,31 5,30 2,27" 
              fill="none" 
              stroke="#FFFFFF" 
              stroke-width="3" 
              stroke-linecap="round"/>
              
    </g>
</svg>
